<svg id="Layer_1" data-name="Layer 1" xmlns="http://www.w3.org/2000/svg" xmlns:xlink="http://www.w3.org/1999/xlink" viewBox="0 0 115.75 150"><defs><style>.cls-1,.cls-10,.cls-11,.cls-12,.cls-13,.cls-14,.cls-15,.cls-16{fill:none;}.cls-2{fill:#ff5757;}.cls-3{clip-path:url(#clip-path);}.cls-4,.cls-8{fill:#d4922f;}.cls-5{clip-path:url(#clip-path-2);}.cls-6{clip-path:url(#clip-path-3);}.cls-7{fill:#fff;}.cls-8{fill-rule:evenodd;}.cls-9{clip-path:url(#clip-path-4);}.cls-10,.cls-11,.cls-12,.cls-13,.cls-14,.cls-15,.cls-16{stroke:#d4922f;}.cls-10{stroke-width:2.43px;}.cls-11{stroke-width:2.43px;}.cls-12{stroke-width:2.43px;}.cls-13{stroke-width:2.43px;}.cls-14{stroke-width:2.43px;}.cls-15{stroke-width:2.43px;}.cls-16{stroke-width:2.43px;}</style><clipPath id="clip-path"><rect class="cls-1" x="0.5" y="0.57" width="114.75" height="114.75"/></clipPath><clipPath id="clip-path-2"><rect class="cls-1" x="8.06" y="8.13" width="99.78" height="99.78"/></clipPath><clipPath id="clip-path-3"><rect class="cls-1" x="13.07" y="13.14" width="89.8" height="89.8"/></clipPath><clipPath id="clip-path-4"><rect class="cls-1" x="20.88" y="12.67" width="71.85" height="56.17"/></clipPath></defs><path class="cls-2" d="M23,114.82q-.1.14-.69,1.11c-.4.64-.9,1.48-1.52,2.51s-1.29,2.12-1.87,3l-1.54,2.32a12.08,12.08,0,0,0,1.95-.4c.75-.21,1.53-.44,2.34-.72s1.63-.56,2.45-.86l2.27-.88,1.81-.74,1.08-.47a7.51,7.51,0,0,1,1.15-.42c.4-.11.78-.21,1.13-.28a6.12,6.12,0,0,1,.91-.15,2.92,2.92,0,0,1,.6,0,.36.36,0,0,1,.19.07.42.42,0,0,1,.09.14.27.27,0,0,1,0,.22c0,.1,0,.15,0,.16s-.06,0,0,.09a1.37,1.37,0,0,0,0,.19s0,.11-.14.18a3.71,3.71,0,0,1-.53.35,5,5,0,0,1-.66.33l-1.09.42-1.82.66c-.73.25-1.59.56-2.59,1s-2,.77-3.13,1.17-2.24.75-3.41,1.1a23.43,23.43,0,0,1-3.33.71,9,9,0,0,1,.85.82,9.39,9.39,0,0,1,.95,1.17,14.94,14.94,0,0,1,1,1.55,19.22,19.22,0,0,1,1,2c.35.87.69,1.73,1,2.6a23.62,23.62,0,0,0,1.07,2.44,11.45,11.45,0,0,0,1.35,2.06,6.38,6.38,0,0,0,1.84,1.49,6.72,6.72,0,0,0,1.6.59,7.84,7.84,0,0,0,2,.21.88.88,0,0,1,.36,0c.07,0,.11.06.11.08s0,.07-.05.11a.5.5,0,0,1-.14.08l-.16,0-.24,0a1.4,1.4,0,0,0-.28.06,1.23,1.23,0,0,0-.25.08c-.05,0-.05,0,0,.05l.07.08s0,0,0,.07a.63.63,0,0,1-.29.07.75.75,0,0,0-.24.08l-.23.13-.23.14a.94.94,0,0,1-.3.06,1.23,1.23,0,0,0-.63.16,1.28,1.28,0,0,1-.43.2,2.78,2.78,0,0,1-.74.1,8,8,0,0,1-1.25-.06,9.39,9.39,0,0,1-1.46-.32,4.7,4.7,0,0,1-1.41-.72,5.6,5.6,0,0,1-1.56-1.87,14.85,14.85,0,0,1-1-2.47A25.29,25.29,0,0,1,18.1,134c-.19-.95-.4-1.86-.62-2.73a20.21,20.21,0,0,0-.79-2.42,5.3,5.3,0,0,0-1.17-1.8c-.22.41-.46.89-.73,1.43s-.54,1.08-.83,1.65l-.83,1.68c-.27.55-.52,1.05-.75,1.49s-.4.84-.54,1.15a5.35,5.35,0,0,0-.25.56,1,1,0,0,1-.26.47.45.45,0,0,1-.31,0,.28.28,0,0,1-.17-.1.18.18,0,0,0-.19-.05.24.24,0,0,0-.11.06.68.68,0,0,1-.12.12.48.48,0,0,1-.18.07.6.6,0,0,1-.29,0,.35.35,0,0,1-.18-.05l-.19-.11a.46.46,0,0,1-.28-.25,2.74,2.74,0,0,1-.21-.42.67.67,0,0,1,0-.3c0-.12,0-.24,0-.34a.94.94,0,0,0-.1-.23c-.06-.07-.06-.18,0-.33a12.48,12.48,0,0,1,.71-1.88c.34-.72.71-1.46,1.11-2.2.23-.44.47-.86.71-1.28l.68-1.2.62-1.06.51-.8-.63-.43a1.75,1.75,0,0,1-.39-.25.62.62,0,0,1-.14-.19A1.29,1.29,0,0,1,12,124a.62.62,0,0,0-.1-.25.7.7,0,0,1-.12-.48c0-.13.21-.22.53-.29a1.72,1.72,0,0,1,.79.07l1.2.3.95-1.62c.36-.61.74-1.23,1.14-1.87l1.21-1.94c.41-.65.8-1.27,1.18-1.85s.73-1.12,1.06-1.59.61-.86.85-1.15a1.13,1.13,0,0,1,.25-.27.35.35,0,0,1,.21-.07.18.18,0,0,1,.13.15.17.17,0,0,0,.21.1.46.46,0,0,0,.2,0h.12s0,0,.05.08,0,.11,0,.21,0,0,0,0l.08,0h.1a1,1,0,0,1,.31.06c.12,0,.17.11.15.21s0,.12,0,.11l.13,0,.2-.05a.24.24,0,0,1,.2.06.59.59,0,0,1-.1.94Z"/><path class="cls-2" d="M39.62,146.58a.67.67,0,0,1-.36.31,1,1,0,0,1-.71,0,1.48,1.48,0,0,1-.4-.24,3.75,3.75,0,0,1-.56-.52,2.87,2.87,0,0,1-.45-.74,1.23,1.23,0,0,1-.08-.82,2.94,2.94,0,0,1,.1-.53l.21-.76c.12-.46.26-1,.41-1.51s.32-1.11.5-1.68c-.19.4-.41.79-.64,1.19a12.68,12.68,0,0,1-.77,1.19,12.15,12.15,0,0,1-.94,1.1,11.57,11.57,0,0,1-1.1,1,2.74,2.74,0,0,1-.65.38,3.48,3.48,0,0,1-.61.22,2.15,2.15,0,0,1-.53.07l-.36,0a1.16,1.16,0,0,1-.27-.23c-.14-.14-.3-.32-.49-.53s-.36-.45-.55-.71l-.56-.75c-.18-.24-.34-.47-.47-.68a3.5,3.5,0,0,1-.28-.51,1.58,1.58,0,0,1,0-.63,9.76,9.76,0,0,1,.11-1c.07-.41.15-.86.26-1.37s.23-1,.39-1.61c.08-.3.2-.7.34-1.18s.31-1,.49-1.54.39-1.1.6-1.66.41-1.05.6-1.48a6.9,6.9,0,0,1,.57-1.05c.18-.27.34-.38.48-.34a2,2,0,0,1,.45.21,3,3,0,0,0,.67.26,2.3,2.3,0,0,0,.76.11,1.36,1.36,0,0,1,.34,0c.12,0,.16.15.11.34a1.54,1.54,0,0,0,0,.17.47.47,0,0,1-.09.17c0,.05-.1.22-.22.5l-.45,1c-.17.43-.36.9-.56,1.43s-.42,1.09-.64,1.67-.42,1.17-.62,1.77-.37,1.18-.52,1.73c-.11.38-.21.76-.29,1.13a9.84,9.84,0,0,0-.19,1,3.08,3.08,0,0,0,0,.79c0,.21.1.33.22.36a1.43,1.43,0,0,0,.48,0,2.8,2.8,0,0,0,.82-.41,9.13,9.13,0,0,0,1.17-1,18.09,18.09,0,0,0,1.58-1.89c.61-.8,1.28-1.8,2-3s1.58-2.65,2.48-4.34a.08.08,0,0,1,.08-.06h.15a5.71,5.71,0,0,1,.54.2c.22.09.43.19.62.29a3.46,3.46,0,0,1,.49.33c.14.11.2.2.18.28-.14.51-.31,1.06-.52,1.64s-.43,1.19-.66,1.82-.47,1.25-.7,1.91-.43,1.31-.61,2q-.48,1.75-.81,3.39A26.22,26.22,0,0,0,39.62,146.58Z"/><path class="cls-2" d="M51.61,127.61a5.24,5.24,0,0,1-.1.55c-.06.29-.14.68-.25,1.16s-.22,1.05-.37,1.68-.29,1.31-.44,2.05c.74,0,1.45,0,2.11,0s1.22.07,1.67.13a1,1,0,0,1,.4.14,1.18,1.18,0,0,1,.25.25.76.76,0,0,1,.15.26,1.11,1.11,0,0,1,.07.23.92.92,0,0,0,0,.16v.16a1.09,1.09,0,0,1-.4.66,1.38,1.38,0,0,1-1,.32L50,135.35c-.17.82-.34,1.67-.49,2.55s-.31,1.76-.47,2.63-.29,1.71-.42,2.56-.25,1.64-.35,2.4c-.06.48-.1.88-.11,1.19s0,.51,0,.6a1.51,1.51,0,0,1-.2.56,3.49,3.49,0,0,1-.33.49,1.62,1.62,0,0,1-.36.34.5.5,0,0,1-.29.11,1.29,1.29,0,0,1-.94-.52,2.41,2.41,0,0,1-.41-1.12,7.11,7.11,0,0,1,0-1.55c0-.57.09-1.16.17-1.78.19-1.44.41-2.89.68-4.33s.57-2.84.9-4.17H44.83a.9.9,0,0,1-.52-.23,1,1,0,0,1-.26-.39,1.47,1.47,0,0,1-.07-.46,1.57,1.57,0,0,1,0-.34,1.5,1.5,0,0,1,.12-.44.38.38,0,0,1,.3-.23,8.65,8.65,0,0,1,1.32-.13l2.1-.08c.25-.92.5-1.77.73-2.54s.45-1.43.65-2a13.83,13.83,0,0,1,.52-1.3c.15-.3.27-.45.36-.44l.08,0,.09,0a.2.2,0,0,0,.18-.09.24.24,0,0,1,.26-.08.94.94,0,0,1,.32.14,1.2,1.2,0,0,1,.29.26,2.64,2.64,0,0,1,.22.32A.53.53,0,0,1,51.61,127.61Z"/><path class="cls-2" d="M65.76,142.13c0,.13,0,.28,0,.46a5.15,5.15,0,0,1,0,.59,5.67,5.67,0,0,1-.11,1,7.14,7.14,0,0,1-.39,1.31,6.52,6.52,0,0,1-.72,1.38,5.16,5.16,0,0,1-1.1,1.24,5.65,5.65,0,0,1-1.56.9,5.73,5.73,0,0,1-2.06.37,6.49,6.49,0,0,1-2.12-.37,5.66,5.66,0,0,1-2-1.2,6.58,6.58,0,0,1-1.48-2.12,7.5,7.5,0,0,1-.6-3.07,8.25,8.25,0,0,1,.26-2.21,10.33,10.33,0,0,1,.75-2.06,9.75,9.75,0,0,1,1.13-1.8,9.2,9.2,0,0,1,1.37-1.41,6.14,6.14,0,0,1,1.49-.95,3.87,3.87,0,0,1,1.51-.36,5,5,0,0,1,2.12.39,4.11,4.11,0,0,1,1.34,1,3.7,3.7,0,0,1,.71,1.26,4.46,4.46,0,0,1,.21,1.22,3.27,3.27,0,0,1-.24,1.21,4.09,4.09,0,0,1-.81,1.29,4.58,4.58,0,0,1-1.5,1,5.63,5.63,0,0,1-2.27.44,4,4,0,0,1-1.3-.19,4.4,4.4,0,0,1-1-.5,3.73,3.73,0,0,1-.75-.65,6.52,6.52,0,0,1-.52-.68,9.42,9.42,0,0,0-.3,2.56,5.54,5.54,0,0,0,.31,1.79,4,4,0,0,0,.82,1.35,3.24,3.24,0,0,0,1.22.85,4.07,4.07,0,0,0,1.55.28,4.57,4.57,0,0,0,1.84-.38,5.14,5.14,0,0,0,1.37-.92,7.08,7.08,0,0,0,1-1.2c.28-.43.53-.82.74-1.18s.38-.66.54-.9.31-.35.46-.34.1.06.1.18a.55.55,0,0,1,0,.18A.47.47,0,0,1,65.76,142.13Zm-5.36-6.47a3.12,3.12,0,0,0-.81.14,4.54,4.54,0,0,0-1,.48,5.65,5.65,0,0,0-1.1.92,5,5,0,0,0-.93,1.46l.43-.21a.89.89,0,0,1,.26-.1s0,0,.1.07a2.45,2.45,0,0,0,1,1,3.12,3.12,0,0,0,1.36.28,2.4,2.4,0,0,0,1-.22,2.14,2.14,0,0,0,.71-.52,1.9,1.9,0,0,0,.4-.7,2.56,2.56,0,0,0,.12-.76,2,2,0,0,0-.43-1.29A1.35,1.35,0,0,0,60.4,135.66Z"/><path class="cls-2" d="M70.75,124q0,.18.21,1.29l.54,2.89c.25,1.29.44,2.45.58,3.47s.25,1.94.37,2.76a11.69,11.69,0,0,0,1.2-1.59c.42-.64.85-1.34,1.28-2.08s.85-1.51,1.26-2.28S77,127,77.3,126.3s.63-1.25.87-1.75.41-.86.5-1.07a9.45,9.45,0,0,1,.59-1.08c.22-.35.44-.67.65-1a7.15,7.15,0,0,1,.59-.72,3.21,3.21,0,0,1,.45-.4.41.41,0,0,1,.2-.06.32.32,0,0,1,.16,0,.26.26,0,0,1,.1.19c.1,0,.14.09.11.13a.05.05,0,0,0,0,.09.75.75,0,0,0,.14.12s0,.11,0,.22a4.77,4.77,0,0,1-.17.63,5.47,5.47,0,0,1-.29.68c-.13.27-.31.62-.54,1s-.53,1-.9,1.7-.82,1.48-1.31,2.42-1,1.94-1.58,3-1.17,2-1.82,3.07a23.62,23.62,0,0,1-2,2.75,10.39,10.39,0,0,1,1.19.05,11.18,11.18,0,0,1,1.47.24c.54.13,1.13.3,1.77.52s1.33.51,2.07.85L82,139.26a24.34,24.34,0,0,0,2.41,1.11,11.93,11.93,0,0,0,2.38.66,6.18,6.18,0,0,0,2.38-.1,6.92,6.92,0,0,0,1.58-.61,8,8,0,0,0,1.65-1.19.8.8,0,0,1,.29-.21c.08,0,.12,0,.14,0s0,.05,0,.1a.42.42,0,0,1,0,.16.76.76,0,0,1-.1.14l-.16.18-.18.22a.64.64,0,0,0-.12.23s0,.05,0,.05h.09s0,0,0,.07-.06.12-.17.23a.65.65,0,0,0-.13.23,1.83,1.83,0,0,0-.08.25A1.14,1.14,0,0,1,92,141a.76.76,0,0,1-.17.23,1.25,1.25,0,0,0-.37.55,2.51,2.51,0,0,1-.18.43,3.13,3.13,0,0,1-.5.57,8.82,8.82,0,0,1-1,.79,8.46,8.46,0,0,1-1.31.72,4.54,4.54,0,0,1-1.53.39,5.66,5.66,0,0,1-2.41-.37,15,15,0,0,1-2.39-1.16,27.92,27.92,0,0,1-2.35-1.6c-.78-.59-1.55-1.14-2.29-1.64a18.21,18.21,0,0,0-2.19-1.3,5.25,5.25,0,0,0-2.07-.57c.11.45.24,1,.39,1.55s.31,1.18.48,1.79.32,1.22.48,1.81.31,1.13.44,1.62.25.9.34,1.22.17.52.2.59a.84.84,0,0,1,.12.52.6.6,0,0,1-.23.21.27.27,0,0,1-.2,0,.18.18,0,0,0-.18.09.5.5,0,0,0,0,.13.47.47,0,0,1,0,.16.41.41,0,0,1-.07.17.49.49,0,0,1-.24.18.56.56,0,0,1-.17.09l-.2,0a.46.46,0,0,1-.38,0,2.24,2.24,0,0,1-.44-.18.63.63,0,0,1-.24-.18c-.08-.08-.15-.17-.23-.24a.64.64,0,0,0-.24-.11c-.08,0-.15-.09-.22-.23a10.08,10.08,0,0,1-.71-1.88c-.22-.77-.43-1.56-.63-2.38l-.33-1.43-.28-1.36c-.08-.43-.16-.83-.23-1.2s-.12-.69-.15-1l-.75.1a2.12,2.12,0,0,1-.46.07.73.73,0,0,1-.23,0,.71.71,0,0,1-.18-.12,1.29,1.29,0,0,0-.26-.12.72.72,0,0,1-.4-.28c-.07-.12,0-.3.2-.56a1.64,1.64,0,0,1,.64-.47l1.1-.57c-.11-.55-.23-1.17-.37-1.86s-.26-1.41-.38-2.15-.26-1.49-.39-2.24-.24-1.49-.34-2.18-.18-1.32-.25-1.9-.11-1-.13-1.41a1.28,1.28,0,0,1,0-.37.56.56,0,0,1,.1-.19.2.2,0,0,1,.21,0c.07,0,.14,0,.22-.07l.15-.12a.31.31,0,0,1,.1-.08.1.1,0,0,1,.09,0l.15.17a0,0,0,0,0,0,0l0-.06,0-.09a1.05,1.05,0,0,1,.3-.14c.11,0,.2,0,.24,0s0,.11.07.09a1,1,0,0,0,.07-.12.66.66,0,0,1,.12-.17.21.21,0,0,1,.19-.09.72.72,0,0,1,.43.2A.63.63,0,0,1,70.75,124Z"/><path class="cls-2" d="M102.22,129.62a9.68,9.68,0,0,1,1,3.21,7.85,7.85,0,0,1-.19,2.89,6.49,6.49,0,0,1-1.2,2.39,6.14,6.14,0,0,1-2,1.64,5.61,5.61,0,0,1-1.16.43,6,6,0,0,1-1.39.2,6.71,6.71,0,0,1-1.52-.12,5.31,5.31,0,0,1-1.54-.59,5.84,5.84,0,0,1-1.43-1.16,7.82,7.82,0,0,1-1.26-1.87,8.62,8.62,0,0,1-.84-2.49,9.77,9.77,0,0,1-.13-2.32,7.4,7.4,0,0,1,.38-2,10.51,10.51,0,0,1,.75-1.65,5.78,5.78,0,0,1,.91-1.22,3.88,3.88,0,0,1,.9-.75c.13-.08.2-.09.2,0a.41.41,0,0,1,0,.2,1.17,1.17,0,0,0-.09.24c0,.07,0,.1.11.06l.2,0H94l.06-.19a.35.35,0,0,1,.16-.19.76.76,0,0,1,.2-.06.38.38,0,0,0,.14,0s0-.06,0-.12,0-.21,0-.25a2.32,2.32,0,0,1,.38-.23,2.42,2.42,0,0,1,.63-.17,4.23,4.23,0,0,1,1-.05,5.67,5.67,0,0,1,1.29.26,5.29,5.29,0,0,1,1.45.69,7.08,7.08,0,0,1,1.45,1.29A9.29,9.29,0,0,1,102.22,129.62Zm-7.94-1.79a5.53,5.53,0,0,0-.65,1.45,8.36,8.36,0,0,0-.32,1.79,7.58,7.58,0,0,0,.12,2,7.3,7.3,0,0,0,.69,2.05A10.24,10.24,0,0,0,95.29,137a5.32,5.32,0,0,0,1.32,1.22,3.13,3.13,0,0,0,1.4.5,2.59,2.59,0,0,0,1.4-.27,2.82,2.82,0,0,0,1-1,3.66,3.66,0,0,0,.56-1.57,6.88,6.88,0,0,0-.1-2.09,10,10,0,0,0-.89-2.53,7,7,0,0,0-1.5-2.11,6.82,6.82,0,0,0-1.56-1.1,3.79,3.79,0,0,0-1.26-.39,2.07,2.07,0,0,0-.62,0l-.35.17A.73.73,0,0,1,94.28,127.83Z"/><path class="cls-2" d="M99.82,112.5a7.51,7.51,0,0,1,.39.67,6,6,0,0,1,.36.77,2.72,2.72,0,0,1,.18.75,1,1,0,0,1-.09.58,2.16,2.16,0,0,1-.67.81,1,1,0,0,1-.6.21,4.44,4.44,0,0,1-.63,0,2.26,2.26,0,0,1-.9-.29,1.92,1.92,0,0,1-.68-.6,3.28,3.28,0,0,1-.36-.75,6.58,6.58,0,0,1-.28-.93,6.39,6.39,0,0,1-.14-.9,1.61,1.61,0,0,1,0-.65,1,1,0,0,1,.31-.53.9.9,0,0,1,.36-.22,3.41,3.41,0,0,1,.68-.2,1.21,1.21,0,0,1,.65.06,1.79,1.79,0,0,1,.65.42A8.87,8.87,0,0,1,99.82,112.5Zm3.14,7.32c.09,0,.24.16.45.41s.46.6.74,1,.41.62.63,1l.66,1.06c.23.37.45.75.68,1.13l.65,1.07c.34.56.66,1.08,1,1.55l.89,1.33,1,1.54.8,1.16c.22.34.38.61.48.8s.12.32,0,.4a.61.61,0,0,0-.13.27c0,.11,0,.2,0,.29a1.1,1.1,0,0,1-.06.26.32.32,0,0,1-.2.19,1.75,1.75,0,0,1-.35,0,3.87,3.87,0,0,1-.56,0,3.53,3.53,0,0,1-.63-.13,1.36,1.36,0,0,1-.53-.3,3.33,3.33,0,0,1-.36-.44c-.17-.22-.37-.5-.6-.82l-.77-1.08c-.28-.39-.57-.8-.85-1.21s-.56-.82-.82-1.22l-.73-1.07c-.32-.5-.64-1-1-1.55s-.6-1-.85-1.51-.48-.9-.66-1.27l-.37-.77a3.85,3.85,0,0,1-.24-.64,1.13,1.13,0,0,1-.05-.38.4.4,0,0,1,.08-.21.54.54,0,0,1,.15-.15,1.78,1.78,0,0,1,.39-.28l.46-.24a1.64,1.64,0,0,1,.41-.16A.49.49,0,0,1,103,119.82Z"/><g class="cls-3"><path class="cls-4" d="M115.25,57.94c0,.94,0,1.88-.07,2.82s-.12,1.87-.21,2.81-.21,1.86-.34,2.79-.3,1.86-.48,2.78-.39,1.83-.62,2.74-.48,1.82-.75,2.72-.57,1.79-.89,2.67-.65,1.76-1,2.63-.74,1.73-1.14,2.57-.82,1.69-1.27,2.52-.9,1.64-1.38,2.45-1,1.6-1.51,2.38-1.06,1.55-1.62,2.3-1.14,1.49-1.73,2.22-1.21,1.44-1.84,2.13-1.28,1.38-2,2-1.34,1.31-2,1.95-1.41,1.24-2.14,1.83-1.46,1.18-2.22,1.74-1.52,1.1-2.3,1.62-1.57,1-2.38,1.5-1.62.95-2.45,1.39-1.67.87-2.52,1.27-1.7.78-2.57,1.14-1.74.7-2.63,1-1.77.61-2.67.89-1.8.52-2.72.75-1.82.43-2.74.62-1.85.34-2.78.48-1.86.25-2.79.34-1.87.16-2.81.21-1.88.07-2.81.07-1.88,0-2.82-.07-1.87-.12-2.81-.21-1.87-.21-2.79-.34-1.86-.3-2.78-.48-1.84-.39-2.75-.62-1.81-.48-2.71-.75-1.79-.57-2.68-.89-1.76-.65-2.62-1-1.73-.74-2.58-1.14-1.68-.82-2.51-1.27-1.65-.9-2.45-1.39-1.6-1-2.38-1.5-1.55-1.06-2.3-1.62-1.5-1.14-2.22-1.74-1.44-1.2-2.14-1.83-1.37-1.28-2-1.95-1.32-1.34-1.95-2-1.24-1.4-1.84-2.13-1.17-1.47-1.73-2.22-1.1-1.52-1.62-2.3-1-1.58-1.51-2.38S7.72,85.82,7.28,85,6.41,83.32,6,82.47s-.78-1.7-1.14-2.57-.7-1.74-1-2.63S3.24,75.5,3,74.6s-.52-1.8-.75-2.72-.43-1.82-.62-2.74-.34-1.85-.48-2.78S.87,64.5.78,63.57.61,61.7.57,60.76.5,58.88.5,57.94s0-1.87.07-2.81.12-1.87.21-2.81.2-1.87.34-2.79.3-1.86.48-2.78S2,44.91,2.22,44s.48-1.81.75-2.71.57-1.79.89-2.68.65-1.76,1-2.62S5.61,34.26,6,33.41s.82-1.68,1.27-2.51.9-1.65,1.38-2.45,1-1.6,1.51-2.38,1.06-1.55,1.62-2.3,1.14-1.5,1.73-2.23,1.21-1.43,1.84-2.13,1.28-1.37,1.95-2,1.34-1.31,2-1.94,1.41-1.24,2.14-1.84,1.46-1.17,2.22-1.73,1.52-1.1,2.3-1.62,1.57-1,2.38-1.51S30,7.79,30.83,7.34s1.67-.86,2.51-1.26,1.71-.78,2.58-1.14,1.74-.7,2.62-1,1.78-.61,2.68-.88,1.8-.52,2.71-.75,1.83-.43,2.75-.62,1.85-.34,2.78-.48S51.32.94,52.25.85,54.12.68,55.06.64,56.93.57,57.88.57s1.87,0,2.81.07,1.87.11,2.81.21,1.86.2,2.79.34,1.86.3,2.78.48,1.84.39,2.74.62,1.82.48,2.72.75,1.79.57,2.67.88,1.76.66,2.63,1,1.73.74,2.57,1.14,1.69.82,2.52,1.26,1.64.91,2.45,1.39,1.6,1,2.38,1.51,1.55,1.06,2.3,1.62,1.5,1.14,2.22,1.73,1.44,1.21,2.14,1.84,1.37,1.28,2,1.94,1.32,1.35,2,2,1.24,1.41,1.84,2.13S103.4,23,104,23.77s1.1,1.52,1.62,2.3,1,1.57,1.51,2.38.94,1.62,1.38,2.45.87,1.66,1.27,2.51.78,1.71,1.14,2.58.7,1.74,1,2.62.61,1.78.89,2.68.52,1.8.75,2.71.43,1.83.62,2.75.34,1.85.48,2.78.25,1.85.34,2.79.16,1.87.21,2.81S115.25,57,115.25,57.94Z"/></g><g class="cls-5"><path class="cls-2" d="M107.85,58c0,.82,0,1.64-.06,2.45s-.1,1.63-.18,2.44-.18,1.63-.3,2.44-.26,1.61-.42,2.41-.34,1.6-.54,2.39-.42,1.58-.65,2.36-.5,1.55-.77,2.32-.57,1.53-.88,2.29-.65,1.5-1,2.24-.72,1.46-1.1,2.18-.79,1.43-1.21,2.13-.86,1.39-1.31,2.07-.92,1.35-1.41,2-1,1.3-1.51,1.94-1,1.24-1.6,1.85-1.11,1.2-1.69,1.77S92.07,94.44,91.46,95s-1.22,1.08-1.85,1.6-1.28,1-1.93,1.51-1.33,1-2,1.41-1.36.89-2.07,1.31-1.41.82-2.13,1.2-1.44.76-2.18,1.1-1.49.69-2.24,1-1.52.6-2.29.88-1.54.53-2.32.77-1.57.45-2.36.65-1.59.38-2.39.54-1.61.3-2.41.42-1.62.22-2.43.3-1.63.14-2.45.18-1.63.06-2.44.06-1.64,0-2.45-.06-1.63-.11-2.44-.18-1.63-.19-2.44-.3-1.61-.26-2.41-.42-1.59-.34-2.39-.54-1.58-.42-2.36-.65-1.55-.5-2.32-.77-1.53-.57-2.29-.88-1.5-.65-2.24-1-1.46-.71-2.18-1.1-1.43-.78-2.13-1.2-1.39-.86-2.07-1.31-1.35-.93-2-1.41-1.3-1-1.93-1.51-1.25-1-1.86-1.6-1.19-1.11-1.77-1.69S21.54,92.14,21,91.53s-1.08-1.22-1.6-1.85-1-1.28-1.51-1.94-.95-1.32-1.41-2-.89-1.36-1.31-2.07-.82-1.41-1.2-2.13-.76-1.44-1.1-2.18-.68-1.49-1-2.24-.6-1.52-.88-2.29-.53-1.54-.77-2.32-.45-1.57-.65-2.36S9.18,68.56,9,67.76s-.29-1.61-.41-2.41-.22-1.62-.3-2.44-.14-1.62-.18-2.44S8.06,58.84,8.06,58s0-1.63.07-2.44.1-1.63.18-2.45.18-1.62.3-2.43.26-1.61.41-2.41.34-1.59.54-2.39.42-1.58.65-2.36.5-1.55.77-2.32.57-1.53.88-2.29.65-1.5,1-2.24.71-1.46,1.1-2.18.78-1.43,1.2-2.13S16,31,16.47,30.31s.93-1.35,1.41-2,1-1.3,1.51-1.93,1.05-1.25,1.6-1.86,1.11-1.19,1.69-1.77,1.17-1.14,1.77-1.69,1.23-1.08,1.86-1.6,1.27-1,1.93-1.51,1.32-.95,2-1.41,1.37-.89,2.07-1.31,1.41-.82,2.13-1.2,1.45-.76,2.18-1.11,1.49-.68,2.24-1,1.52-.6,2.29-.88,1.54-.53,2.32-.77,1.57-.45,2.36-.65,1.59-.38,2.39-.54,1.61-.29,2.41-.41,1.62-.22,2.44-.3,1.62-.14,2.44-.18,1.63-.07,2.45-.07,1.63,0,2.44.07,1.63.09,2.45.18,1.62.17,2.43.3,1.61.26,2.41.41,1.6.34,2.39.54,1.58.42,2.36.65,1.55.5,2.32.77,1.53.57,2.29.88,1.5.65,2.24,1,1.46.72,2.18,1.11,1.44.78,2.13,1.2,1.4.86,2.07,1.31,1.35.93,2,1.41,1.3,1,1.93,1.51,1.25,1.05,1.85,1.6,1.2,1.11,1.77,1.69,1.14,1.17,1.69,1.77,1.08,1.22,1.6,1.86,1,1.27,1.51,1.93,1,1.32,1.41,2,.89,1.37,1.31,2.07.82,1.41,1.21,2.13.75,1.45,1.1,2.18.68,1.49,1,2.24.6,1.52.88,2.29.53,1.54.77,2.32.45,1.57.65,2.36.38,1.59.54,2.39.3,1.61.42,2.41.22,1.62.3,2.43.14,1.63.18,2.45S107.85,57.21,107.85,58Z"/></g><g class="cls-6"><path class="cls-7" d="M102.88,58c0,.74,0,1.47-.06,2.21s-.09,1.46-.16,2.19-.16,1.46-.27,2.19-.23,1.45-.38,2.17-.3,1.44-.48,2.15-.37,1.42-.59,2.13-.44,1.4-.69,2.09-.51,1.38-.79,2.06-.58,1.35-.9,2-.64,1.32-1,2-.71,1.29-1.08,1.92-.77,1.25-1.18,1.86-.83,1.21-1.27,1.8-.89,1.17-1.36,1.74-.94,1.12-1.44,1.67-1,1.07-1.52,1.59-1,1-1.59,1.52-1.1,1-1.67,1.44-1.15.92-1.74,1.36-1.19.86-1.8,1.27-1.23.8-1.86,1.18-1.27.73-1.92,1.08-1.3.68-2,1-1.33.62-2,.9-1.37.54-2.06.79-1.39.48-2.09.69-1.41.41-2.13.59-1.43.34-2.15.48-1.44.27-2.17.38-1.45.2-2.18.27-1.47.12-2.2.16S58.71,103,58,103s-1.47,0-2.2-.06-1.47-.09-2.2-.16-1.46-.17-2.18-.27-1.45-.24-2.18-.38-1.43-.3-2.15-.48-1.42-.38-2.12-.59-1.4-.44-2.09-.69-1.38-.51-2.06-.79-1.35-.58-2-.9-1.32-.64-2-1-1.29-.71-1.92-1.08-1.25-.77-1.86-1.18-1.21-.83-1.8-1.27-1.17-.89-1.74-1.36-1.13-1-1.67-1.44-1.08-1-1.6-1.52-1-1.05-1.52-1.59-1-1.1-1.44-1.67-.91-1.15-1.35-1.74-.86-1.19-1.27-1.8-.8-1.23-1.18-1.86-.74-1.27-1.09-1.92-.67-1.3-1-2-.61-1.34-.89-2-.54-1.37-.79-2.06-.48-1.39-.69-2.09-.41-1.41-.59-2.13-.34-1.43-.49-2.15-.26-1.44-.37-2.17-.2-1.46-.27-2.19-.13-1.46-.16-2.19-.06-1.47-.06-2.21,0-1.47.06-2.2.09-1.47.16-2.2.16-1.46.27-2.18.23-1.46.37-2.18.31-1.43.49-2.15.37-1.42.59-2.12.44-1.4.69-2.09.51-1.38.79-2.06.58-1.35.89-2,.65-1.32,1-2,.71-1.29,1.09-1.92.77-1.25,1.18-1.86.83-1.22,1.27-1.8.89-1.17,1.35-1.74.95-1.13,1.44-1.67,1-1.08,1.52-1.6,1.05-1,1.6-1.52,1.1-1,1.67-1.44,1.15-.91,1.74-1.35,1.19-.86,1.8-1.27,1.23-.8,1.86-1.18,1.27-.74,1.92-1.09,1.3-.67,2-1,1.33-.61,2-.89,1.36-.55,2.06-.79,1.39-.48,2.09-.7,1.41-.4,2.12-.58,1.43-.34,2.15-.49,1.45-.26,2.18-.37,1.45-.2,2.18-.27,1.47-.13,2.2-.17,1.47,0,2.2,0,1.47,0,2.21,0,1.46.1,2.2.17,1.45.16,2.18.27,1.45.23,2.17.37,1.44.31,2.15.49,1.43.37,2.13.58,1.4.45,2.09.7,1.38.51,2.06.79,1.35.58,2,.89,1.32.65,2,1,1.29.71,1.92,1.09,1.25.77,1.86,1.18,1.21.83,1.8,1.27,1.17.89,1.74,1.35,1.12,1,1.67,1.44,1.07,1,1.59,1.52,1,1.05,1.52,1.6,1,1.1,1.44,1.67S93.6,30.71,94,31.3s.86,1.19,1.27,1.8.8,1.23,1.18,1.86.74,1.27,1.08,1.92.68,1.3,1,2,.62,1.33.9,2,.54,1.36.79,2.06.48,1.38.69,2.09.41,1.41.59,2.12.34,1.43.48,2.15.27,1.45.38,2.18.2,1.45.27,2.18.13,1.47.16,2.2S102.88,57.31,102.88,58Z"/></g><path class="cls-8" d="M46.75,89a45.13,45.13,0,0,1,1.78,6.51,31,31,0,0,1,.55,4.64c.07,2,2.1,3.24,2.15.6a21,21,0,0,0-.68-5.93C49.91,92.41,48,88.59,46.75,89Zm10.1-14.45a22.47,22.47,0,0,0-3.26,2.17c1.47.58,2.7.26,4.38-1.24a2.34,2.34,0,0,0,1.24-1.9c.7-.22,1.62-1,1.64-1.71,1.15-.13,2-.8,1.82-.91a7.14,7.14,0,0,0-3.23-.53,32,32,0,0,0-5.8.77c-2.47.59-3.52,1.28-3.7,2a15.6,15.6,0,0,1,4.4-1.65,22.81,22.81,0,0,1,6.48-.49,26.94,26.94,0,0,0-6.39.91,15.19,15.19,0,0,0-4.49,1.73c.23.74,1.66.19,2.84-.29a23.26,23.26,0,0,1,6.32-1.48,27.12,27.12,0,0,0-6.16,1.88,16.68,16.68,0,0,0-2.2,1.05c1.33,1.07,4.25-1,6.67-1.67A25.75,25.75,0,0,0,52.23,76C53.42,76.84,54.77,75.42,56.85,74.55Zm4-1.52a7.75,7.75,0,0,1,.92-.63c4.8,1.14,9.36,1.63,13,.48,3.43-1.09,6-3.64,7.06-8.49a3.76,3.76,0,0,1,1.57-1.75h0a4.19,4.19,0,0,1,.83-.39A4.47,4.47,0,0,1,85.39,62a4.06,4.06,0,0,0-.2,1.07,4.21,4.21,0,0,0,.64,2.21,5.58,5.58,0,0,1,.84,2c.14,1.48-.56,3.27.11,4-2.16,6-6.3,10.71-12.27,14.38a34.27,34.27,0,0,1-16.21,5c-6.43.39-8.62-.74-8.54-4.38a11.69,11.69,0,0,0-.35-3.42A4.39,4.39,0,0,0,46,79.42C44.72,79,42,77.59,41.41,75.2s-6.13-4-9.89-4.12c3.76.68,8.83,1.82,9.47,4.22.69,2.62,3.48,4.07,4.85,4.53A4,4,0,0,1,49,83a11.58,11.58,0,0,1,.33,3.29c-.08,2.55-1.6,3.37-1.36.3a8.6,8.6,0,0,0-.45-3.76c.51,5.79-2.38,5.52-5.8,4.1,5.34.33,4.35-7.67.27-7.64-3,0-.92,2.37-3.87,2.58-3.85.27-1.91-3.17-4-3.88-1.45-.48-2.91.79-5.34-.52a20.16,20.16,0,0,1-3.08-4.24,7.73,7.73,0,0,1-1.08-4.87,3.17,3.17,0,0,1,1.07-1.78,5.71,5.71,0,0,0,.92,7c-1.44-2.26-2.09-7.13,1.26-8A18.58,18.58,0,0,1,35,65.38c.09,1.71,1.12,2,2.48,2,1.19,0,3.31-.39,4.09.56A8,8,0,0,0,44,70.21a7.22,7.22,0,0,0,3.38.41,6.33,6.33,0,0,0,1.5-.32c2.25-.8,6,.07,3.19.9-3.43,1-4,1.52-8.7-.17,4.12,1.72,5.78,2.46,7.78,6.46a11.15,11.15,0,0,1-1.4,3.09A5.3,5.3,0,0,0,51.36,78a18,18,0,0,1,1.43,4.4,12.4,12.4,0,0,1-2.45,3.83A8.28,8.28,0,0,0,52.89,83a13.11,13.11,0,0,1-.13,4.32,8.52,8.52,0,0,1-2.09,1.53,4.75,4.75,0,0,0,2-1,14.31,14.31,0,0,1-.45,1.46A8.21,8.21,0,0,0,53,87.57a12.64,12.64,0,0,0,2.69-3.85,12.59,12.59,0,0,1-1.09,5.87A9.82,9.82,0,0,0,56,82.89a17.71,17.71,0,0,0,1-3.15c2.35,3,1.75,5.61-.56,8.24a7.63,7.63,0,0,0,2.08-2.72,13.16,13.16,0,0,1-1.16,4.61,9.34,9.34,0,0,0,1.53-5.37,26.59,26.59,0,0,0,1.13-3.14c1.65,2.61,1.1,4.78-.8,6.93a5.79,5.79,0,0,0,1.58-1.82,14.07,14.07,0,0,1-1.07,3.35,8.74,8.74,0,0,0,1.46-4,21.29,21.29,0,0,0,1.5-3.65c1.12,2.43.28,4.49-1.39,6.33a7.3,7.3,0,0,0,1.54-1.67A15.27,15.27,0,0,1,62,89.46a8.57,8.57,0,0,0,1.35-3.32,16.92,16.92,0,0,0,1.77-4.33c1.22,2.43-.32,4.93-1.85,6.57a6.84,6.84,0,0,0,2.15-2.64,17.61,17.61,0,0,1-1.14,3.31,8.57,8.57,0,0,0,1.44-3.9A21.06,21.06,0,0,0,67,81.77c1.2,2.22-.18,4.36-1.57,5.79a6.91,6.91,0,0,0,1.85-2.06,17.36,17.36,0,0,1-1,3,8.76,8.76,0,0,0,1.39-3.56A17.08,17.08,0,0,0,69,81.71c1,2.1-.34,4.35-1.66,5.64A4,4,0,0,0,68.81,86c-.22.64-.48,1.24-.7,1.72a8.19,8.19,0,0,0,1.12-2.35A19.25,19.25,0,0,0,71,81.58c.77,1.28-.3,3.75-1,5.24a9.71,9.71,0,0,0,1.48-6.4c2.92-.21,1,4.39.39,5.72a9.64,9.64,0,0,0,1.49-6.24c2.54-.54.91,3.42.29,5a9.33,9.33,0,0,0,1.52-5.65c2.42-.6.91,3.09.21,4.65a9.28,9.28,0,0,0,1.53-5.51c2.43-1.16.91,2.86.2,4.42a9.29,9.29,0,0,0,1.53-5.53c2.27-1.49.4,3.62-.07,4.67a9.45,9.45,0,0,0,1.52-5.82c2-1.51.32,3.57-.1,4.5a9.51,9.51,0,0,0,1.52-5.85c2.32-1.86.32,3.44-.09,4.35a9.48,9.48,0,0,0,1.51-6c2.44-3,.49,2.71,0,3.74a9.47,9.47,0,0,0,1.51-6q.38-.61.72-1.29c.15-.28.29-.56.43-.85.33-.7.35-1,.17-1.1s-.77.52-1.24,1.1l-.52.63a21.81,21.81,0,0,1-10.94,6.75,17.4,17.4,0,0,1-11.9-1.14l-.11-.06-.1.07A16.16,16.16,0,0,1,59,76c-.86.41-.65-.08.15-1.11a11.25,11.25,0,0,1,1.28-1.48c5.24,1.56,12,2,16.17-.72C72.08,74.68,66.55,74.81,60.89,73Zm-6.62,5.83a22.53,22.53,0,0,1-1.1,3.48,11.6,11.6,0,0,1,0,4.55C55.68,84.08,56.14,82.2,54.27,78.86ZM53,81.72a20.52,20.52,0,0,0-1.52-4.32A11.38,11.38,0,0,0,51.81,76C54.44,78,54.14,78.79,53,81.72Zm-1.77-4.83c-.34-.66-.7-1.3-1.07-1.91C51.45,75.61,51.53,75.51,51.27,76.89Zm18.18,7.53c.67-1.3,2.07-3.42.09-3.66A12.1,12.1,0,0,1,69.45,84.42Zm-1.77-.29c.63-1.36,1.72-2.95-.14-3.21A13.36,13.36,0,0,1,67.68,84.13Zm-1.93.13c.59-1.48,1.57-3-.27-3.36A14.71,14.71,0,0,1,65.75,84.26Zm-2.32,1c.87-1.86,2.29-4.15-.3-4.59a1.24,1.24,0,0,1,0,.16A14.22,14.22,0,0,1,63.43,85.25Zm-2.16-.14c1-2.2,2-3.8-.62-5A15.62,15.62,0,0,1,61.27,85.11ZM58.9,83.84c.94-2.4,1.41-3-.89-4.49A17.53,17.53,0,0,1,58.9,83.84ZM55.9,82c.81-2.29,1.27-2.87-1.11-4A19.5,19.5,0,0,1,55.9,82ZM86.25,61.6c.35-1.07.78-2.11,1.19-3.12.26-.63.51-1.26.74-1.87,1.26-3.39-.79-3.42-1.51.47-.18,1-.46,2-.76,3.05-.13.46-.26.94-.38,1.44A3.45,3.45,0,0,1,86.25,61.6Zm-1.88,8a32.2,32.2,0,0,1-3.78,3.58c-.28.22-.61,1.07-1.19,1.51.18-.38.33-.77.47-1.16-1.29.86-.86,1.25-1.91,2.18a12.7,12.7,0,0,0,.53-1.33c-1.54.87-.76,1.26-2,2.14a14.19,14.19,0,0,0,.55-1.41c-1.43.68-.89,1.35-2.09,2.18a9.66,9.66,0,0,0,.78-1.62c-1.32.55-1.19,1.54-2.8,2.73a14.88,14.88,0,0,0,1.3-2.21c-1.47.55-1.48,2.09-3.55,3.17a18.83,18.83,0,0,0,2-2.75c-1,.34-1.47,1-2.66,2.39a18.75,18.75,0,0,1-1.35,1.44,20.42,20.42,0,0,0,3.41-.58C78.94,78.07,84.46,69.48,84.37,69.58ZM69.69,78.7A16.68,16.68,0,0,0,71,76.87c-.57.07-1.13.12-1.69.14-.58.7-1.18,1.37-1.79,2C65.6,81,67.93,80.81,69.69,78.7Zm-2.44,0c-2,2-4.38,2.06-2.31.32.79-.66,1.56-1.37,2.28-2.07Q68,77,68.78,77C68.28,77.61,67.77,78.17,67.25,78.72Zm-2.59,0c-2,1.65-4.23,1.38-1.95-.26.76-.55,1.53-1.15,2.28-1.8a15.48,15.48,0,0,0,1.66.26C66,77.54,65.34,78.15,64.66,78.72Zm-2.2-.61c-2.63,1.9-4.51,1-2.14-.4.88-.51,1.75-1.06,2.58-1.62a13.5,13.5,0,0,0,1.57.45C63.8,77.1,63.13,77.62,62.46,78.11Zm-2.36-.76c-2.54,1.48-4.8.57-2.08-.47a15.67,15.67,0,0,0,3.11-1.53c.41.2.83.39,1.27.56C61.66,76.41,60.88,76.89,60.1,77.35ZM81.92,58.64a6.09,6.09,0,0,1,.91,3.12,4.09,4.09,0,0,1,0,.79l.29-.2c0-.06,0-.11,0-.17a8.18,8.18,0,0,0-.06-3.84C82.71,57,79.26,54.36,81.92,58.64Zm.3,4.4a3.78,3.78,0,0,0,.18-1.28,5.63,5.63,0,0,0-.85-2.89,4.49,4.49,0,0,0-2.4-2c-1.56-.5-4.41-.22-1.93,1.13,1.49.8,3.38,1.94,3.56,2.08a3,3,0,0,1,1.28,3.1Zm1.25-4.8a8.64,8.64,0,0,1,.11,3.82l.4-.17a13.22,13.22,0,0,0,.59-3.69C84.6,55.76,82.44,54.25,83.47,58.24Zm1.53,0c.07-5.22,1.92-3.35.5,1.81-.15.53-.3,1.07-.43,1.59a4.34,4.34,0,0,0-.59.11A13.87,13.87,0,0,0,85,58.21Zm3.82-2.11c-.28.82-.63,1.67-1,2.55s-.82,2-1.16,3a2.93,2.93,0,0,1,.85.37,27.4,27.4,0,0,1,2.22-5.18c.33-.65.66-1.29,1-1.92C92.46,51.2,90.15,52.16,88.82,56.1ZM91.6,54c1.52-3.91,3.1-4.32,1.69-.93a44.29,44.29,0,0,1-2.09,4.14,22.87,22.87,0,0,0-2.64,6.13,2.69,2.69,0,0,0-.66-1,26.39,26.39,0,0,1,2.23-5.27A34.24,34.24,0,0,0,91.6,54ZM46.33,89.11a45.14,45.14,0,0,1,1.78,6.48c.21,1.11.36,2.19.46,3.24.3,3.53-2.14,1.06-2.11-.56,0-1.15,0-2.35-.1-3.57a48.53,48.53,0,0,0-.77-5.45C45.84,89.21,46.09,89.17,46.33,89.11Zm-1.17.19c-.26,0-.53,0-.8,0,.11,1.52.17,3,.15,4.43,0,.78,0,1.55-.1,2.3C44.28,98,46.05,100.49,46,97.4c0-.87,0-1.76-.11-2.67A47.88,47.88,0,0,0,45.16,89.3Zm-1.24,0a8.15,8.15,0,0,1-.83-.1c-.06,1.18-.16,2.32-.3,3.43-.07.57-.14,1.13-.24,1.69-.34,2,1.31,3.53,1.47,1.18,0-.58,0-1.16.06-1.76C44.1,92.33,44,90.85,43.92,89.31Zm-1.26-.19c-.27-.07-.55-.15-.84-.25-.19.78-.39,1.54-.61,2.27-.09.32-.19.63-.28.94-.44,1.39.94,4,1.29,1.57.05-.35.1-.7.14-1.06C42.5,91.46,42.6,90.31,42.66,89.12Zm-1.22-.4c-1.59-.62-1.48,0-1.48,1.47,0,.87.23,2.91.84.83C41,90.28,41.24,89.52,41.44,88.72Zm33.37-17.5a14,14,0,0,1,2,.29,3,3,0,0,0,.35-.22,19.88,19.88,0,0,0-3.37-.8C71.37,70.18,73.5,71.13,74.81,71.22Zm1.33.6c-.45-.08-.9-.13-1.36-.17C71.7,71.42,73.91,72.75,76.14,71.82Zm10.21,2.05a17,17,0,0,1,2.47.09c2.11.23,4.67-.48,1.07-.84a18.19,18.19,0,0,0-3.3,0Q86.46,73.53,86.35,73.87Zm2.42.52a15.13,15.13,0,0,0-2.52-.08c-.26,1.33.27,1.93,2.92,1.16C91.36,74.65,90.69,74.6,88.77,74.39Zm-2-1.71a18.77,18.77,0,0,1,3.18,0c.53,0,4.75-.15,2.36-.61A18.55,18.55,0,0,0,87,71.94C86.93,72.19,86.84,72.44,86.75,72.68ZM49,68.12c1-.4,1.92-.75,2.88-1,3.32-1,4.22-3-.44-1.28a38.45,38.45,0,0,0-4.12,1.82Zm3-.63c-.78.24-1.56.52-2.35.83C53.81,69.6,54.25,66.81,52,67.49Zm-5.28,0a38.88,38.88,0,0,1,4.57-2.06c6.24-2.31,5.47-4.36-.32-1.48a44.68,44.68,0,0,0-5.38,3.22ZM45.07,67a44.1,44.1,0,0,1,5.73-3.46c.93-.46,1.85-.87,2.78-1.23,2.64-1,3.76-3.67,0-2-3.07,1.39-7.59,4.16-9.42,6.4Zm11.54-5.27,0,0h0a14,14,0,0,1-.83,3.36,10.9,10.9,0,0,1-2.89,4.22l1.19.39c2.64.84,2.52.41,5.33.26a7.76,7.76,0,0,1,3.45.57c.56.28,1,.86.2,1.21-.24.1-.47.2-.69.31,3.93.9,7.67,1.34,10.81.75-.22-.28-.42-.57-.61-.86a9.16,9.16,0,0,1-.65-1.18.74.74,0,0,1-.06-.28c0-.24.2-.39.5-.46a3.14,3.14,0,0,1,.91,0,18.3,18.3,0,0,1,4.29,1c2-1.53,3.43-4,4.06-7.7a2.64,2.64,0,0,0-1.1-2.83,21.12,21.12,0,0,0-5.85-2.52,5.67,5.67,0,0,1-1.58-.71c-.43-.41-.28-.74,1.06-.88a45.64,45.64,0,0,0,10.07-1.9,24,24,0,0,0,8.92-5.33c.37-.34.69-.7,1-1s.62-.7.85-.66.28.5,0,1.59a28.76,28.76,0,0,1-3.41,8.33A19.91,19.91,0,0,0,88.7,65c-.07.63-.17,1.25-.28,1.87a29,29,0,0,1-1.23,4.62,20.3,20.3,0,0,1,5.18.18,4.59,4.59,0,0,1,1.09.33c.34.16.52.37.49.62a.57.57,0,0,1-.15.3,11.67,11.67,0,0,1-4.49,3,6.82,6.82,0,0,1-4.34.38,28.15,28.15,0,0,1-4.75,6.06,6.29,6.29,0,0,1,1.45.4,1.61,1.61,0,0,1,.51.34.52.52,0,0,1,.12.55.9.9,0,0,1-.15.23,15.15,15.15,0,0,1-5.23,3.59,10,10,0,0,1-5.41.85,37.32,37.32,0,0,1-20.13,3.19c-.58-.06-1.16-.15-1.74-.25A18.44,18.44,0,0,1,51,94.71a22.78,22.78,0,0,1,.6,7.79.65.65,0,0,1-.15.38c-.24.26-.69.24-1.29,0a11.38,11.38,0,0,1-1.93-1.1c-2.7-1.83-6.59-5.35-8.27-8.13a21.08,21.08,0,0,1-.4-3.45,8.57,8.57,0,0,1,.2-2.3C34.7,85,28.43,79.09,25.6,74c.18.42.38.86.58,1.31.43.94,2.24,5.05,1,7,.39-2.45-.64-4.72-1.55-6.71-.24-.55-.48-1.07-.68-1.58a5.76,5.76,0,0,1-.54,2.48,25.14,25.14,0,0,0-.19-3.28,13.1,13.1,0,0,1-.08-3.45,4.87,4.87,0,0,1,.07-1.49c.32-1.49,1.42-2.62,3.56-3.19l.11,0a18.61,18.61,0,0,0,3.73-1.93A4.31,4.31,0,0,1,30,64.72l1,0,.42-.05c2.18-.26,4.87-.75,6.55-2.17-.72,1.24-2.45,1.95-4,2.35a63.67,63.67,0,0,1,9.67,1.81c1.79-2.32,6.51-5.23,9.7-6.67a14.81,14.81,0,0,1,2.07-.79c.62-.16,1.06-.15,1.23.08a.4.4,0,0,1,.09.27A19.63,19.63,0,0,1,56.61,61.72ZM31.08,73c.69.35,1.32.65,1.86,1a.79.79,0,0,0-.59.31.8.8,0,0,0-.14.38l-.34-.55c.12,1.12,1.12,2.51,2,1.86a1,1,0,0,1-.59-.09.84.84,0,0,0,.86-.3.74.74,0,0,0,.12-.65,1.78,1.78,0,0,1,.49,1.38c1-1.66-1.62-3.26-3.66-3.3"/><g class="cls-9"><path class="cls-8" d="M69.4,27.07a44.86,44.86,0,0,1-1.79-6.51,31.94,31.94,0,0,1-.54-4.64c-.08-2-2.1-3.24-2.15-.6a21.4,21.4,0,0,0,.67,5.93C66.24,23.66,68.16,27.48,69.4,27.07ZM59.29,41.53a22.73,22.73,0,0,0,3.26-2.18c-1.46-.58-2.7-.26-4.37,1.24a2.38,2.38,0,0,0-1.25,1.9c-.69.23-1.61,1-1.63,1.71-1.16.13-2,.81-1.83.91a7.08,7.08,0,0,0,3.24.53,31.29,31.29,0,0,0,5.8-.77c2.47-.59,3.52-1.28,3.7-2a16.16,16.16,0,0,1-4.4,1.66,23.31,23.31,0,0,1-6.48.48,27.41,27.41,0,0,0,6.38-.9,15.43,15.43,0,0,0,4.5-1.73c-.23-.75-1.66-.19-2.84.28A23.57,23.57,0,0,1,57,44.14a27.19,27.19,0,0,0,6.17-1.89,17.16,17.16,0,0,0,2.19-1c-1.32-1.07-4.24,1-6.66,1.68a26,26,0,0,0,5.18-2.8C62.73,39.23,61.38,40.66,59.29,41.53Zm-4,1.51a7.26,7.26,0,0,1-.91.63c-4.8-1.14-9.37-1.63-13-.48-3.42,1.09-6,3.65-7,8.49a3.73,3.73,0,0,1-1.58,1.75h0v0a5.17,5.17,0,0,1-.83.38,4.55,4.55,0,0,1-1.14.24A3.7,3.7,0,0,0,31,53a4.16,4.16,0,0,0-.65-2.2,5.68,5.68,0,0,1-.83-2c-.15-1.48.55-3.27-.12-4,2.16-6,6.31-10.71,12.28-14.38a34.27,34.27,0,0,1,16.21-5c6.43-.38,8.62.74,8.54,4.39a11.65,11.65,0,0,0,.35,3.41,4.38,4.38,0,0,0,3.44,3.46c1.25.42,3.93,1.83,4.56,4.22s6.12,4.06,9.88,4.12c-3.75-.68-8.83-1.82-9.46-4.22-.69-2.62-3.48-4.07-4.85-4.53a4,4,0,0,1-3.16-3.16,11.23,11.23,0,0,1-.33-3.29c.08-2.55,1.6-3.37,1.35-.3a8.82,8.82,0,0,0,.45,3.77c-.5-5.8,2.38-5.53,5.8-4.11-5.33-.33-4.34,7.67-.26,7.64,3,0,.92-2.37,3.87-2.58,3.85-.27,1.91,3.17,4,3.88,1.45.48,2.91-.79,5.34.52a19.94,19.94,0,0,1,3.08,4.25,7.63,7.63,0,0,1,1.07,4.86,3.23,3.23,0,0,1-1.06,1.79,5.71,5.71,0,0,0-.93-7c1.45,2.27,2.09,7.13-1.25,8a18.75,18.75,0,0,1-7.17.12c-.09-1.71-1.12-2-2.48-2-1.19,0-3.31.38-4.09-.56a7.76,7.76,0,0,0-2.41-2.3,7.11,7.11,0,0,0-3.38-.42,6.41,6.41,0,0,0-1.51.32c-2.24.8-6-.07-3.19-.89,3.44-1,4-1.52,8.71.16C68.66,43.32,67,42.59,65,38.58a11.15,11.15,0,0,1,1.4-3.09,5.28,5.28,0,0,0-1.62,2.63,17.16,17.16,0,0,1-1.43-4.4,12.35,12.35,0,0,1,2.45-3.82,8.14,8.14,0,0,0-2.55,3.21,12.89,12.89,0,0,1,.13-4.33,8.36,8.36,0,0,1,2.08-1.52,4.63,4.63,0,0,0-2,1A13.82,13.82,0,0,1,64,26.76a7.94,7.94,0,0,0-.78,1.74,12.64,12.64,0,0,0-2.69,3.85,12.74,12.74,0,0,1,1.08-5.87,9.89,9.89,0,0,0-1.45,6.7,17.41,17.41,0,0,0-1,3.15c-2.36-2.95-1.75-5.61.56-8.23a7.69,7.69,0,0,0-2.09,2.71,13.07,13.07,0,0,1,1.17-4.6,9.23,9.23,0,0,0-1.53,5.36,25.49,25.49,0,0,0-1.13,3.14c-1.65-2.61-1.1-4.77.8-6.93a5.81,5.81,0,0,0-1.59,1.82,14.7,14.7,0,0,1,1.07-3.35,8.84,8.84,0,0,0-1.45,4,22.93,22.93,0,0,0-1.51,3.65c-1.12-2.43-.27-4.49,1.4-6.33a7.3,7.3,0,0,0-1.54,1.67,15.56,15.56,0,0,1,.91-2.65,8.71,8.71,0,0,0-1.34,3.32,16.56,16.56,0,0,0-1.77,4.33c-1.23-2.43.32-4.93,1.84-6.57a6.92,6.92,0,0,0-2.14,2.64A18,18,0,0,1,51.91,27a8.76,8.76,0,0,0-1.44,3.9,20.53,20.53,0,0,0-1.28,3.37c-1.21-2.22.17-4.36,1.57-5.79a7.2,7.2,0,0,0-1.86,2.06,16.52,16.52,0,0,1,1.05-3,8.81,8.81,0,0,0-1.39,3.56,17.83,17.83,0,0,0-1.41,3.23c-.95-2.1.35-4.35,1.66-5.64a4.05,4.05,0,0,0-1.48,1.4c.23-.65.49-1.25.7-1.73a8.16,8.16,0,0,0-1.11,2.35,19,19,0,0,0-1.76,3.76c-.77-1.29.29-3.76,1-5.25a9.73,9.73,0,0,0-1.48,6.4c-2.93.21-1-4.39-.39-5.71a9.61,9.61,0,0,0-1.5,6.23c-2.54.54-.91-3.42-.28-5A9.35,9.35,0,0,0,41,36.86c-2.42.61-.92-3.09-.22-4.65a9.36,9.36,0,0,0-1.52,5.52c-2.43,1.15-.91-2.87-.21-4.43a9.37,9.37,0,0,0-1.52,5.53c-2.27,1.49-.41-3.62.06-4.66A9.47,9.47,0,0,0,36,40c-2,1.51-.31-3.57.11-4.5a9.47,9.47,0,0,0-1.52,5.85c-2.33,1.86-.33-3.44.08-4.34a9.56,9.56,0,0,0-1.51,6c-2.43,3-.48-2.7,0-3.74a9.6,9.6,0,0,0-1.51,6c-.25.41-.48.84-.72,1.29l-.42.85c-.33.71-.35,1-.17,1.11s.76-.52,1.24-1.11c.19-.24.38-.47.52-.62A21.68,21.68,0,0,1,43,40a17.47,17.47,0,0,1,11.9,1.14l.11.06.1-.07a16.8,16.8,0,0,1,2-1.08c.86-.41.65.08-.15,1.11a13,13,0,0,1-1.28,1.48c-5.24-1.56-12-2-16.17.73C44.06,41.39,49.6,41.26,55.25,43Zm6.62-5.83A24.06,24.06,0,0,1,63,33.73a11.24,11.24,0,0,1,0-4.55C60.47,32,60,33.88,61.87,37.21Zm1.24-2.86a19.46,19.46,0,0,0,1.52,4.32,11.38,11.38,0,0,0-.29,1.41C61.71,38,62,37.28,63.11,34.35Zm1.77,4.83c.33.67.7,1.31,1.07,1.91C64.69,40.46,64.61,40.56,64.88,39.18ZM46.7,31.65c-.67,1.3-2.07,3.43-.1,3.66A12.1,12.1,0,0,1,46.7,31.65Zm1.76.29c-.62,1.36-1.71,3,.15,3.21A13.91,13.91,0,0,1,48.46,31.94Zm1.94-.12c-.59,1.47-1.57,3,.27,3.35A14.12,14.12,0,0,1,50.4,31.82Zm2.32-1c-.87,1.86-2.29,4.15.3,4.59l0-.15A14.29,14.29,0,0,1,52.72,30.82Zm2.15.14c-1,2.21-2,3.8.63,5A15.69,15.69,0,0,1,54.87,31Zm2.38,1.27c-1,2.4-1.41,3,.88,4.49A18,18,0,0,1,57.25,32.23Zm3,1.85c-.8,2.29-1.27,2.88,1.11,4A20.84,20.84,0,0,1,60.24,34.08ZM29.89,54.47c-.35,1.07-.77,2.11-1.18,3.12-.26.64-.52,1.26-.74,1.87-1.26,3.39.79,3.42,1.51-.47.18-1,.46-2,.75-3.05.13-.46.26-.93.39-1.43A4.47,4.47,0,0,1,29.89,54.47Zm1.89-8a31.43,31.43,0,0,1,3.78-3.58c.28-.22.61-1.06,1.18-1.51-.17.38-.32.77-.46,1.17,1.29-.87.85-1.26,1.9-2.19a12,12,0,0,0-.52,1.34c1.53-.88.76-1.27,2-2.15A14.19,14.19,0,0,0,39.07,41c1.43-.67.89-1.34,2.09-2.18a10.55,10.55,0,0,0-.79,1.62c1.33-.55,1.2-1.54,2.81-2.72a15.2,15.2,0,0,0-1.31,2.2c1.47-.55,1.48-2.09,3.56-3.17a18.83,18.83,0,0,0-2,2.75c1-.33,1.46-1,2.66-2.39a15.49,15.49,0,0,1,1.35-1.44,20.42,20.42,0,0,0-3.41.58C37.21,38,31.69,46.59,31.78,46.49Zm14.67-9.12a18,18,0,0,0-1.34,1.83c.57-.07,1.13-.12,1.68-.14.59-.7,1.19-1.37,1.8-2C50.55,35,48.22,35.26,46.45,37.37Zm2.45,0c2-2,4.38-2.07,2.31-.33-.79.66-1.56,1.37-2.28,2.07-.52,0-1-.06-1.56-.05C47.86,38.46,48.37,37.9,48.9,37.36Zm2.58,0c2-1.66,4.23-1.39,2,.25-.77.56-1.53,1.16-2.29,1.8-.54-.11-1.09-.2-1.66-.26C50.14,38.53,50.81,37.92,51.48,37.36Zm2.21.6c2.63-1.9,4.5-1,2.13.4-.88.51-1.75,1.06-2.57,1.62-.51-.17-1-.33-1.57-.45C52.34,39,53,38.45,53.69,38Zm2.35.77c2.54-1.49,4.81-.58,2.09.47A15.35,15.35,0,0,0,55,40.72c-.41-.2-.84-.39-1.28-.56C54.49,39.66,55.26,39.18,56,38.73ZM34.23,57.43a6.17,6.17,0,0,1-.92-3.12,5.16,5.16,0,0,1,.06-.79,2.51,2.51,0,0,1-.29.2,1,1,0,0,0,0,.17,7.93,7.93,0,0,0,.06,3.84C33.44,59.06,36.89,61.71,34.23,57.43ZM33.92,53a4.4,4.4,0,0,0-.18,1.28,5.7,5.7,0,0,0,.86,2.9A4.49,4.49,0,0,0,37,59.16c1.56.51,4.41.22,1.94-1.13-1.49-.8-3.39-1.94-3.57-2.08a3,3,0,0,1-1.28-3.1Zm-1.24,4.81A8.84,8.84,0,0,1,32.56,54c-.13.07-.26.12-.4.18a13.44,13.44,0,0,0-.58,3.68C31.55,60.31,33.71,61.83,32.68,57.84Zm-1.53,0c-.07,5.23-1.92,3.35-.5-1.81.14-.53.29-1.07.42-1.58l.6-.12A13.87,13.87,0,0,0,31.15,57.86ZM27.33,60c.28-.83.62-1.68,1-2.55s.82-2,1.16-3a2.87,2.87,0,0,1-.86-.37,28,28,0,0,1-2.21,5.18c-.34.65-.67,1.29-1,1.92C23.68,64.87,26,63.91,27.33,60Zm-2.78,2.11C23,66,21.44,66.41,22.86,63A44.51,44.51,0,0,1,25,58.88a23.38,23.38,0,0,0,2.64-6.13,2.61,2.61,0,0,0,.66,1A26.59,26.59,0,0,1,26,59C25.47,60.06,24.94,61.1,24.55,62.09ZM69.82,27A44,44,0,0,1,68,20.48a29.35,29.35,0,0,1-.46-3.24c-.3-3.53,2.14-1.06,2.1.56,0,1.16,0,2.35.11,3.57a46,46,0,0,0,.77,5.45C70.31,26.86,70.06,26.91,69.82,27Zm1.16-.2c.27,0,.53,0,.81,0-.12-1.52-.17-3-.15-4.43,0-.78,0-1.55.09-2.3.14-1.91-1.64-4.43-1.62-1.34,0,.87,0,1.76.11,2.67A45.64,45.64,0,0,0,71,26.77Zm1.24,0a6.46,6.46,0,0,1,.84.11c.06-1.19.16-2.33.29-3.44.07-.57.15-1.14.24-1.69.34-2-1.3-3.53-1.46-1.18,0,.58,0,1.16-.06,1.76Q72,24.45,72.22,26.76Zm1.26.19c.28.07.56.15.85.25.19-.78.39-1.54.6-2.27.1-.31.19-.63.29-.94.44-1.38-.94-4-1.3-1.57,0,.35-.1.7-.14,1.06C73.65,24.61,73.55,25.76,73.48,27Zm1.23.4c1.59.62,1.47,0,1.48-1.47,0-.87-.23-2.91-.84-.83C75.13,25.79,74.9,26.55,74.71,27.35ZM41.33,44.85a14.16,14.16,0,0,1-2-.28l-.34.21a19.08,19.08,0,0,0,3.36.8C44.78,45.89,42.65,45,41.33,44.85ZM40,44.26c.44.07.9.13,1.36.16C44.45,44.65,42.24,43.33,40,44.26ZM29.79,42.2a16.82,16.82,0,0,1-2.46-.09c-2.12-.23-4.67.48-1.08.84a18.19,18.19,0,0,0,3.3,0Q29.7,42.55,29.79,42.2Zm-2.41-.51a17.55,17.55,0,0,0,2.51.08c.27-1.34-.26-1.94-2.91-1.17C24.78,41.42,25.46,41.48,27.38,41.69Zm2,1.7a17,17,0,0,1-3.19,0c-.52,0-4.74.15-2.35.62a19.32,19.32,0,0,0,5.26.15C29.21,43.88,29.31,43.63,29.4,43.39ZM67.13,48c-1,.4-1.93.75-2.88,1-3.32,1-4.23,3,.44,1.29a41.7,41.7,0,0,0,4.12-1.83Zm-3,.63c.77-.24,1.56-.52,2.35-.83C62.34,46.47,61.9,49.27,64.13,48.58Zm5.28,0a39.63,39.63,0,0,1-4.57,2.06C58.6,53,59.37,55,65.16,52.16a45.47,45.47,0,0,0,5.38-3.22Zm1.67.46a44.1,44.1,0,0,1-5.73,3.46,29.16,29.16,0,0,1-2.78,1.23c-2.64,1-3.77,3.67,0,2,3.08-1.39,7.6-4.16,9.42-6.4ZM59.53,54.35v0h0a14.45,14.45,0,0,1,.82-3.37,10.92,10.92,0,0,1,2.9-4.22l-1.2-.38c-2.64-.85-2.51-.42-5.33-.27a7.74,7.74,0,0,1-3.44-.57c-.56-.27-1-.85-.21-1.2.25-.11.48-.21.69-.32-3.92-.9-7.67-1.34-10.81-.75a10.56,10.56,0,0,1,.62.87,10.33,10.33,0,0,1,.64,1.17.49.49,0,0,1,.06.28c0,.24-.2.39-.5.47a3.49,3.49,0,0,1-.9,0,17.81,17.81,0,0,1-4.29-1c-2,1.53-3.44,4-4.06,7.7a2.63,2.63,0,0,0,1.1,2.83,21.23,21.23,0,0,0,5.85,2.53,5,5,0,0,1,1.57.71c.44.4.29.73-1,.87a45.64,45.64,0,0,0-10.07,1.9A24.12,24.12,0,0,0,23,67c-.37.34-.69.7-1,1s-.62.71-.85.66-.29-.5-.05-1.59a29.16,29.16,0,0,1,3.41-8.33,19.76,19.76,0,0,0,2.87-7.59c.08-.63.17-1.26.29-1.88A29.24,29.24,0,0,1,29,44.59a19.78,19.78,0,0,1-5.17-.18,4.85,4.85,0,0,1-1.1-.33c-.34-.16-.52-.37-.48-.62a.53.53,0,0,1,.15-.3,11.83,11.83,0,0,1,4.48-3,6.89,6.89,0,0,1,4.34-.38,29,29,0,0,1,4.76-6.06,6.9,6.9,0,0,1-1.45-.39A1.68,1.68,0,0,1,34,33a.51.51,0,0,1-.11-.54.79.79,0,0,1,.15-.24,15,15,0,0,1,5.23-3.59,10,10,0,0,1,5.41-.85,37.3,37.3,0,0,1,20.12-3.19c.58.06,1.17.15,1.75.25a17.7,17.7,0,0,1-1.33-3.49,22.86,22.86,0,0,1-.6-7.8.62.62,0,0,1,.15-.38c.24-.26.69-.24,1.29,0a11.35,11.35,0,0,1,1.92,1.1c2.71,1.84,6.6,5.35,8.28,8.14a20.84,20.84,0,0,1,.4,3.44,8.57,8.57,0,0,1-.2,2.3c5,2.93,11.29,8.81,14.12,13.9-.17-.43-.37-.87-.58-1.32-.42-.93-2.23-5-.95-7-.4,2.45.64,4.73,1.54,6.72.25.54.49,1.06.69,1.57a5.72,5.72,0,0,1,.54-2.47A25,25,0,0,0,92,42.86a13.2,13.2,0,0,1,.09,3.46A4.89,4.89,0,0,1,92,47.81c-.32,1.48-1.42,2.61-3.55,3.18l-.12,0A18.07,18.07,0,0,0,84.58,53a4.2,4.2,0,0,1,1.57-1.61c-.32,0-.66,0-1,0l-.43.06c-2.17.26-4.86.74-6.55,2.16.72-1.24,2.45-2,4-2.34a63.65,63.65,0,0,1-9.67-1.82c-1.79,2.32-6.52,5.23-9.7,6.67a14.81,14.81,0,0,1-2.07.79c-.63.16-1.07.15-1.24-.08a.4.4,0,0,1-.08-.27A19.67,19.67,0,0,1,59.53,54.35ZM85.06,43.07c-.68-.34-1.31-.65-1.86-1a.82.82,0,0,0,.6-.32.73.73,0,0,0,.14-.38l.34.55c-.12-1.12-1.13-2.51-2-1.86a1,1,0,0,1,.6.09.86.86,0,0,0-.87.3.82.82,0,0,0-.12.65,1.81,1.81,0,0,1-.48-1.38c-1,1.66,1.62,3.26,3.65,3.3"/></g><path class="cls-10" d="M23,114.81c-.07.1-.31.46-.7,1.11l-1.51,2.52c-.67,1.13-1.29,2.12-1.87,3s-1.08,1.63-1.54,2.33a13.73,13.73,0,0,0,1.95-.41c.74-.2,1.52-.44,2.34-.71s1.63-.57,2.45-.87,1.58-.6,2.27-.88,1.3-.53,1.81-.75.87-.37,1.07-.46a9.63,9.63,0,0,1,1.17-.43c.39-.11.77-.2,1.11-.28a7.4,7.4,0,0,1,.92-.14,4.08,4.08,0,0,1,.59,0,.46.46,0,0,1,.2.08.24.24,0,0,1,.09.14.28.28,0,0,1-.05.22c.05.09.05.15,0,.16s-.07,0,0,.09l0,.18c0,.06,0,.12-.14.18a3.83,3.83,0,0,1-.53.36c-.17.09-.39.2-.67.32l-1.09.43-1.82.66c-.73.25-1.58.57-2.57,1s-2,.78-3.14,1.17-2.24.76-3.4,1.09a22.17,22.17,0,0,1-3.35.72,10.48,10.48,0,0,1,.87.82,11.38,11.38,0,0,1,.95,1.17c.32.45.65,1,1,1.55a19,19,0,0,1,1,2q.54,1.32,1,2.61a22.53,22.53,0,0,0,1.07,2.43,11.6,11.6,0,0,0,1.34,2.06,6,6,0,0,0,1.85,1.5,6.73,6.73,0,0,0,1.6.6,8.3,8.3,0,0,0,2,.2,1.52,1.52,0,0,1,.37,0c.08,0,.11.06.12.09a.12.12,0,0,1-.06.09l-.15.09-.16,0-.24,0-.28,0a1.09,1.09,0,0,0-.25.1s0,0,0,0l.07.07s0,.06,0,.09a.53.53,0,0,1-.28.06.41.41,0,0,0-.24.08l-.23.14-.24.13a.54.54,0,0,1-.29.05,1.28,1.28,0,0,0-.63.17,1.64,1.64,0,0,1-.42.2,2.55,2.55,0,0,1-.75.1,7,7,0,0,1-1.25-.06,7.8,7.8,0,0,1-1.47-.32,4.65,4.65,0,0,1-1.4-.72,5.6,5.6,0,0,1-1.56-1.87,14.24,14.24,0,0,1-1-2.46,25.9,25.9,0,0,1-.71-2.76c-.2-1-.41-1.86-.63-2.74a18.57,18.57,0,0,0-.79-2.42,5.2,5.2,0,0,0-1.17-1.8c-.22.41-.46.88-.73,1.42s-.54,1.08-.82,1.66-.57,1.13-.84,1.68l-.74,1.5c-.22.45-.41.83-.55,1.14a5.35,5.35,0,0,0-.25.56c-.1.28-.18.44-.26.47a.4.4,0,0,1-.31,0,.18.18,0,0,1-.16-.09.18.18,0,0,0-.2-.06.25.25,0,0,0-.12.08.63.63,0,0,1-.12.1.3.3,0,0,1-.17.08.65.65,0,0,1-.3,0,.34.34,0,0,1-.17-.05l-.2-.11a.48.48,0,0,1-.27-.25,3.51,3.51,0,0,1-.22-.43,1.12,1.12,0,0,1,0-.29c0-.11,0-.23,0-.34a.61.61,0,0,0-.11-.23.44.44,0,0,1,0-.33,11.29,11.29,0,0,1,.72-1.88c.34-.72.7-1.45,1.1-2.2.23-.43.46-.86.71-1.28s.46-.83.69-1.21l.62-1c.19-.32.36-.59.5-.8l-.63-.44a2,2,0,0,1-.38-.24.77.77,0,0,1-.15-.19A.66.66,0,0,1,12,124a.91.91,0,0,0-.11-.26.76.76,0,0,1-.11-.49c0-.12.2-.21.52-.26a1.46,1.46,0,0,1,.79.05l1.2.31c.29-.48.61-1,1-1.63s.74-1.23,1.13-1.88l1.21-1.94c.4-.65.8-1.27,1.17-1.85s.73-1.11,1.06-1.58.62-.86.86-1.15a1,1,0,0,1,.25-.27.44.44,0,0,1,.21-.07.24.24,0,0,1,.13.16c0,.07.09.11.21.1h.32s0,0,.05.07v.22s0,0,0,0H22l.09,0a1.15,1.15,0,0,1,.32.08c.12,0,.17.11.15.2s0,.12,0,.12l.13,0a1,1,0,0,1,.2-.06.23.23,0,0,1,.2.07.67.67,0,0,1,.19.43A.64.64,0,0,1,23,114.81Z"/><path class="cls-11" d="M39.61,146.58c0,.1-.15.21-.36.31a1,1,0,0,1-.7,0,1.48,1.48,0,0,1-.4-.24,2.94,2.94,0,0,1-.55-.52,2.91,2.91,0,0,1-.46-.73,1.25,1.25,0,0,1-.08-.83,2.31,2.31,0,0,1,.11-.52c0-.23.13-.48.21-.77.12-.46.26-1,.41-1.51s.31-1.11.49-1.67c-.19.39-.4.78-.63,1.18a10,10,0,0,1-.78,1.18,12.27,12.27,0,0,1-.94,1.11,8.72,8.72,0,0,1-1.11,1,3.08,3.08,0,0,1-.64.38,4.43,4.43,0,0,1-.61.21,2.27,2.27,0,0,1-.53.08,1.23,1.23,0,0,1-.36,0,.82.82,0,0,1-.27-.23c-.14-.14-.3-.32-.48-.53s-.36-.45-.56-.7-.38-.5-.56-.75-.33-.48-.46-.69a5.56,5.56,0,0,1-.29-.51,2.07,2.07,0,0,1,0-.63,9.91,9.91,0,0,1,.11-1.05c.06-.4.15-.86.26-1.36s.24-1,.39-1.6l.34-1.18c.15-.49.31-1,.5-1.55s.38-1.1.59-1.66.41-1.05.61-1.49a6,6,0,0,1,.57-1c.18-.26.33-.37.47-.34a3.61,3.61,0,0,1,.45.21,3.09,3.09,0,0,0,.68.26,1.88,1.88,0,0,0,.76.11,1.36,1.36,0,0,1,.34,0c.11,0,.14.15.09.34s0,.11-.05.16a.51.51,0,0,1-.08.17l-.22.5c-.12.27-.26.62-.44,1s-.37.9-.57,1.43-.42,1.09-.64,1.67-.42,1.18-.62,1.78-.37,1.18-.53,1.73c-.1.37-.19.75-.28,1.12s-.14.73-.18,1a3.08,3.08,0,0,0,0,.79q0,.32.21.36a1,1,0,0,0,.47,0,2.41,2.41,0,0,0,.82-.4,7.77,7.77,0,0,0,1.19-1,19.43,19.43,0,0,0,1.58-1.89c.6-.8,1.27-1.8,2-3s1.57-2.65,2.47-4.34c0,0,0,0,.08-.06a.4.4,0,0,1,.15,0,4.84,4.84,0,0,1,.54.2,5.09,5.09,0,0,1,.62.3,2.88,2.88,0,0,1,.5.32c.13.11.19.21.16.29-.14.5-.31,1.05-.52,1.63s-.43,1.2-.66,1.82-.46,1.26-.68,1.91-.43,1.31-.61,2q-.48,1.75-.81,3.39C39.85,144.84,39.7,145.78,39.61,146.58Z"/><path class="cls-12" d="M51.61,127.61c0,.07,0,.25-.1.54s-.15.68-.25,1.16-.22,1.05-.37,1.68-.28,1.32-.43,2.06c.74,0,1.44,0,2.1,0s1.22.08,1.67.14a.86.86,0,0,1,.39.13,1.23,1.23,0,0,1,.26.24,1.07,1.07,0,0,1,.16.27,1.58,1.58,0,0,1,.06.23.91.91,0,0,0,0,.17.85.85,0,0,1,0,.16,1.1,1.1,0,0,1-.39.66,1.48,1.48,0,0,1-1,.32L50,135.34c-.17.83-.33,1.68-.49,2.56s-.32,1.75-.47,2.62-.3,1.73-.43,2.57-.24,1.64-.34,2.4c-.06.49-.1.88-.12,1.19s0,.5,0,.59a1.48,1.48,0,0,1-.19.57,3.49,3.49,0,0,1-.33.49,1.43,1.43,0,0,1-.36.34.42.42,0,0,1-.29.11,1.3,1.3,0,0,1-.94-.51,2.49,2.49,0,0,1-.41-1.13,7,7,0,0,1,0-1.54c0-.57.09-1.17.17-1.78q.29-2.17.69-4.35c.26-1.44.56-2.83.88-4.16H45.05a.17.17,0,0,0-.1,0h-.13a.86.86,0,0,1-.51-.22,1.29,1.29,0,0,1-.26-.41,1.39,1.39,0,0,1-.07-.44,2.68,2.68,0,0,1,0-.34,1.48,1.48,0,0,1,.12-.45.41.41,0,0,1,.3-.23,9.37,9.37,0,0,1,1.32-.14l2.1-.07c.25-.92.49-1.77.73-2.53s.45-1.43.65-2a13.43,13.43,0,0,1,.53-1.3c.15-.3.27-.45.35-.44l.08,0a.16.16,0,0,0,.09,0,.19.19,0,0,0,.18-.09.25.25,0,0,1,.25-.09.8.8,0,0,1,.32.14,1.35,1.35,0,0,1,.3.28,2,2,0,0,1,.22.32A.41.41,0,0,1,51.61,127.61Z"/><path class="cls-13" d="M65.76,142.13a3.94,3.94,0,0,0,0,.46c0,.17,0,.37,0,.59a4.92,4.92,0,0,1-.11,1,6.57,6.57,0,0,1-.38,1.31,7,7,0,0,1-.71,1.38,5.65,5.65,0,0,1-1.11,1.24,5.41,5.41,0,0,1-1.56.9,5.73,5.73,0,0,1-2.06.37,6.24,6.24,0,0,1-2.12-.37,5.85,5.85,0,0,1-2-1.21,6.6,6.6,0,0,1-1.48-2.1,7.55,7.55,0,0,1-.6-3.08,8.68,8.68,0,0,1,.26-2.21,11.18,11.18,0,0,1,.75-2.06,10.27,10.27,0,0,1,1.12-1.8,9.28,9.28,0,0,1,1.37-1.42,6.69,6.69,0,0,1,1.5-.94,4.08,4.08,0,0,1,1.51-.35,4.85,4.85,0,0,1,2.12.38,3.87,3.87,0,0,1,1.34,1,3.61,3.61,0,0,1,.71,1.26,4.17,4.17,0,0,1,.21,1.22,3.27,3.27,0,0,1-.24,1.21,3.65,3.65,0,0,1-.82,1.29,4.8,4.8,0,0,1-1.49,1,5.68,5.68,0,0,1-2.28.44,4,4,0,0,1-1.29-.19,4,4,0,0,1-1-.5,4.38,4.38,0,0,1-.75-.65c-.21-.24-.38-.47-.53-.67a9.22,9.22,0,0,0-.28,2.54,5.07,5.07,0,0,0,.31,1.8,4.12,4.12,0,0,0,.81,1.35,3.49,3.49,0,0,0,1.22.85,4.11,4.11,0,0,0,1.55.28,4.57,4.57,0,0,0,1.84-.38,5.57,5.57,0,0,0,1.37-.92,7.08,7.08,0,0,0,1-1.2c.28-.43.53-.82.73-1.18l.54-.9c.16-.23.31-.34.47-.33s.1,0,.1.17a1.09,1.09,0,0,1,0,.18A1.54,1.54,0,0,1,65.76,142.13Zm-5.36-6.47a3.81,3.81,0,0,0-.81.14,4.42,4.42,0,0,0-1.05.48,5.61,5.61,0,0,0-1.09.92,5.09,5.09,0,0,0-.93,1.46l.43-.22a.68.68,0,0,1,.25-.09s.06,0,.11.07a2.34,2.34,0,0,0,1,1,3.15,3.15,0,0,0,1.36.28,2.4,2.4,0,0,0,1-.22,2,2,0,0,0,1.11-1.22,2.43,2.43,0,0,0,.11-.75,2.09,2.09,0,0,0-.42-1.3A1.34,1.34,0,0,0,60.4,135.66Z"/><path class="cls-14" d="M70.76,124c0,.12.07.55.21,1.3s.31,1.7.53,2.89.44,2.44.57,3.46.27,1.95.39,2.77a13.38,13.38,0,0,0,1.19-1.59c.43-.65.85-1.35,1.28-2.09s.85-1.51,1.26-2.28S77,127,77.31,126.3s.62-1.25.86-1.75.41-.86.49-1.06a10.43,10.43,0,0,1,.6-1.09c.22-.35.44-.66.65-1a8.15,8.15,0,0,1,.6-.72,3.34,3.34,0,0,1,.43-.4.45.45,0,0,1,.2-.06.33.33,0,0,1,.17,0,.31.31,0,0,1,.1.2c.1,0,.13.08.11.12s0,.07,0,.1l.13.11s.06.12,0,.23a4.34,4.34,0,0,1-.15.62c-.07.18-.17.41-.3.68s-.3.62-.53,1l-.92,1.7c-.38.66-.82,1.47-1.3,2.42s-1,1.93-1.58,3-1.17,2-1.82,3.07a23.47,23.47,0,0,1-2,2.76,8.37,8.37,0,0,1,1.19,0,8.88,8.88,0,0,1,1.48.24,16.71,16.71,0,0,1,1.77.52,20.26,20.26,0,0,1,2,.86c.85.42,1.68.85,2.49,1.28a21.52,21.52,0,0,0,2.41,1.12,12,12,0,0,0,2.37.65,6.17,6.17,0,0,0,2.38-.1,6.72,6.72,0,0,0,1.6-.61,7.91,7.91,0,0,0,1.63-1.19,1.39,1.39,0,0,1,.3-.21c.08,0,.12,0,.15,0s0,.06,0,.11a.85.85,0,0,1-.06.17.61.61,0,0,1-.09.12l-.17.19a1.84,1.84,0,0,0-.17.22.85.85,0,0,0-.12.23s0,.05,0,.05h.1a.06.06,0,0,1,0,.08s-.06.12-.18.23a.78.78,0,0,0-.12.22c0,.09-.06.17-.08.25A1.34,1.34,0,0,1,92,141a.66.66,0,0,1-.18.23,1.31,1.31,0,0,0-.37.55,2.23,2.23,0,0,1-.17.43,3.61,3.61,0,0,1-.5.57,8,8,0,0,1-1,.78,7.72,7.72,0,0,1-1.31.73,4.54,4.54,0,0,1-1.53.39,5.62,5.62,0,0,1-2.41-.36,15.47,15.47,0,0,1-2.38-1.18,27.09,27.09,0,0,1-2.36-1.59C79,141,78.24,140.46,77.5,140a17.65,17.65,0,0,0-2.2-1.29,5.27,5.27,0,0,0-2.08-.58c.11.45.25,1,.4,1.55s.32,1.17.48,1.79.33,1.22.49,1.81.3,1.13.44,1.62.25.89.34,1.22.16.52.19.58c.11.28.15.45.12.52a.43.43,0,0,1-.24.21.22.22,0,0,1-.18,0c-.07,0-.13,0-.19.09a.28.28,0,0,0,0,.13.92.92,0,0,1,0,.16.38.38,0,0,1-.08.17.62.62,0,0,1-.24.18.38.38,0,0,1-.17.08l-.21.05a.47.47,0,0,1-.37,0,3.86,3.86,0,0,1-.45-.17,1.77,1.77,0,0,1-.23-.19l-.23-.24a.58.58,0,0,0-.24-.11c-.08,0-.15-.09-.22-.23a11.31,11.31,0,0,1-.71-1.89c-.23-.77-.44-1.56-.63-2.38-.12-.47-.22-.95-.33-1.43s-.19-.92-.27-1.35-.16-.84-.24-1.2-.12-.68-.15-.94l-.76.09a2.06,2.06,0,0,1-.45.07.55.55,0,0,1-.24,0l-.18-.11a.89.89,0,0,0-.24-.13.72.72,0,0,1-.41-.28c-.07-.11,0-.3.21-.55a1.49,1.49,0,0,1,.62-.48c.28-.14.65-.32,1.11-.57q-.15-.82-.36-1.86c-.13-.69-.26-1.41-.39-2.15l-.39-2.25c-.12-.76-.24-1.48-.34-2.17s-.19-1.31-.25-1.89-.11-1-.13-1.43a1,1,0,0,1,0-.36.49.49,0,0,1,.1-.19.2.2,0,0,1,.21,0c.07,0,.14,0,.22-.06l.15-.13a.31.31,0,0,1,.1-.08s.05,0,.09,0l.14.17s0,0,0,0l0-.07,0-.08a1.3,1.3,0,0,1,.29-.15c.12,0,.21,0,.25,0s.06.11.08.09,0-.06.07-.12a.82.82,0,0,1,.11-.17.21.21,0,0,1,.2-.08.57.57,0,0,1,.54.75Z"/><path class="cls-15" d="M102.23,129.62a9.89,9.89,0,0,1,1,3.21,7.9,7.9,0,0,1-.19,2.9,6.45,6.45,0,0,1-1.2,2.38,6,6,0,0,1-2,1.64,6.46,6.46,0,0,1-2.55.64,6.09,6.09,0,0,1-1.51-.13,5.33,5.33,0,0,1-1.55-.58,6.65,6.65,0,0,1-1.45-1.16,7.75,7.75,0,0,1-1.23-1.88,9.41,9.41,0,0,1-.86-2.5,9.66,9.66,0,0,1-.13-2.31,7.55,7.55,0,0,1,.4-2,9.73,9.73,0,0,1,.74-1.65,6.53,6.53,0,0,1,.9-1.23,4.41,4.41,0,0,1,.89-.73c.14-.09.22-.1.22,0a.43.43,0,0,1,0,.2,1.17,1.17,0,0,0-.09.24c0,.07,0,.1.1.06l.21,0a1.2,1.2,0,0,1,.19,0l.06-.2a.4.4,0,0,1,.17-.19l.19-.06.14,0s0-.06,0-.13,0-.21,0-.25a2.6,2.6,0,0,1,.39-.23,2.69,2.69,0,0,1,.63-.17,4.23,4.23,0,0,1,1-.05,6.16,6.16,0,0,1,1.3.25,5.7,5.7,0,0,1,1.44.69,7.8,7.8,0,0,1,1.46,1.3A9.78,9.78,0,0,1,102.23,129.62Zm-8-1.78a5.63,5.63,0,0,0-.64,1.44,7.69,7.69,0,0,0-.32,1.78,8.59,8.59,0,0,0,.12,2,7.19,7.19,0,0,0,.69,2.05A10.7,10.7,0,0,0,95.29,137a5.46,5.46,0,0,0,1.32,1.21,3.08,3.08,0,0,0,1.4.5,2.5,2.5,0,0,0,1.4-.27,2.72,2.72,0,0,0,1-1,3.58,3.58,0,0,0,.56-1.57,6.28,6.28,0,0,0-.09-2.09,9.45,9.45,0,0,0-.89-2.52,7,7,0,0,0-1.5-2.11,6.49,6.49,0,0,0-1.55-1.1,3.83,3.83,0,0,0-1.27-.39,1.52,1.52,0,0,0-.62,0l-.34.17A1,1,0,0,1,94.27,127.84Z"/><path class="cls-16" d="M99.81,112.51a4,4,0,0,1,.41.66,5.89,5.89,0,0,1,.35.77,3.78,3.78,0,0,1,.18.74,1.07,1.07,0,0,1-.09.59,2.18,2.18,0,0,1-.68.81,1,1,0,0,1-.59.2,4.64,4.64,0,0,1-.63,0,2.24,2.24,0,0,1-.89-.28,2.05,2.05,0,0,1-.69-.6,3.94,3.94,0,0,1-.36-.74,7.79,7.79,0,0,1-.28-.94,8.43,8.43,0,0,1-.15-.9,1.42,1.42,0,0,1,0-.65,1.07,1.07,0,0,1,.31-.54.82.82,0,0,1,.36-.2,2.8,2.8,0,0,1,.69-.2,1.27,1.27,0,0,1,.64,0,2.1,2.1,0,0,1,.65.42A6.94,6.94,0,0,1,99.81,112.51Zm3.16,7.31c.09,0,.23.16.44.41s.45.6.75,1,.4.61.61,1,.45.7.67,1.08.45.74.68,1.12l.65,1.07c.34.56.66,1.07,1,1.54s.6.91.89,1.34.72,1.08,1,1.53l.79,1.16a7.54,7.54,0,0,1,.49.81c.09.19.11.33,0,.4a.49.49,0,0,0-.13.27c0,.1,0,.2,0,.29a.77.77,0,0,1-.07.26.32.32,0,0,1-.2.19,1,1,0,0,1-.33,0c-.17,0-.36,0-.56,0a3.07,3.07,0,0,1-.64-.14,1.3,1.3,0,0,1-.53-.29c-.07-.07-.19-.21-.37-.43s-.37-.5-.6-.83l-.76-1.08c-.28-.39-.56-.8-.84-1.21s-.56-.81-.83-1.21l-.72-1.08c-.33-.49-.65-1-1-1.55s-.6-1-.85-1.52-.48-.9-.66-1.27-.3-.62-.38-.77-.19-.46-.24-.62a1,1,0,0,1,0-.39.4.4,0,0,1,.08-.21l.15-.15a2.19,2.19,0,0,1,.39-.29l.46-.24a2.15,2.15,0,0,1,.41-.16A.63.63,0,0,1,103,119.82Z"/></svg>